<?xml version="1.0" encoding="iso-8859-1"?>
<!-- Generator: Adobe Illustrator 19.0.0, SVG Export Plug-In . SVG Version: 6.00 Build 0)  -->
<svg version="1.1" id="Capa_1" xmlns="http://www.w3.org/2000/svg" xmlns:xlink="http://www.w3.org/1999/xlink" x="0px" y="0px"
	 viewBox="0 0 511.999 511.999" style="enable-background:new 0 0 511.999 511.999;" xml:space="preserve">
<path style="fill:#FFC373;" d="M142.236,334.119L142.236,334.119l-5.166-14.085c-2.457,0.901-4.88,1.883-7.267,2.934l-75.746-67.935
	l-0.006-0.005l-10.733-10.481c-0.765,0.783-18.87,19.519-31.399,49.073c-16.924,39.928-15.807,80.713,3.233,117.948
	c5.099,9.971,15.186,16.388,26.983,17.164c0.803,0.054,1.601,0.079,2.394,0.079c11.021,0,21.01-5.059,27.059-13.82
	c13.46-19.494,41.207-54.095,75.814-66.786L142.236,334.119L142.236,334.119z"/>
<g>
	<path style="fill:#FFB64F;" d="M500.079,293.619c-12.529-29.555-30.634-48.29-31.399-49.073l-10.739,10.486l-75.747,67.936
		c-2.388-1.051-4.81-2.033-7.267-2.934l-5.166,14.085l0,0l0,0l-5.166,14.085c34.607,12.692,62.355,47.292,75.814,66.786
		c6.05,8.762,16.037,13.821,27.059,13.82c0.793,0,1.592-0.025,2.394-0.079c11.797-0.776,21.885-7.193,26.982-17.164
		C515.886,374.332,517.004,333.547,500.079,293.619z"/>
	<path style="fill:#FFB64F;" d="M194.687,327.439l-48.841-171.491l-3.772-14.532c-44.534,11.561-76.926,36.45-96.258,55.295
		C35.85,206.425,30.3,219.981,30.59,233.9c0.289,13.935,6.407,27.264,16.784,36.57l106.703,95.701l47.685-25.502L194.687,327.439z"
		/>
</g>
<path style="fill:#FF9900;" d="M466.182,196.711c-19.331-18.844-51.723-43.733-96.258-55.295l-3.773,14.534l-48.84,171.489
	l-7.075,13.23l47.685,25.502l106.703-95.701c10.376-9.307,16.495-22.637,16.784-36.57
	C481.698,219.98,476.147,206.425,466.182,196.711z"/>
<path style="fill:#FFC373;" d="M396.567,128.884l-62.738,220.237H178.17l-62.738-220.237l6.491-6.251
	c38.925-37.475,129.976-39.375,133.836-39.435l0.24-0.01l0.24,0.01c3.86,0.06,94.912,1.96,133.836,39.435L396.567,128.884z"/>
<path style="fill:#FFB64F;" d="M396.567,128.884l-62.738,220.237h-77.83V83.188l0.24,0.01c3.86,0.06,94.912,1.96,133.836,39.435
	L396.567,128.884z"/>
<g>
</g>
<g>
</g>
<g>
</g>
<g>
</g>
<g>
</g>
<g>
</g>
<g>
</g>
<g>
</g>
<g>
</g>
<g>
</g>
<g>
</g>
<g>
</g>
<g>
</g>
<g>
</g>
<g>
</g>
</svg>
