<svg id="Capa_1" enable-background="new 0 0 512.035 512.035" height="512" viewBox="0 0 512.035 512.035" width="512" xmlns="http://www.w3.org/2000/svg"><g><g><path d="m388.024 380.578c0 75.638-55.114 121.457-123.101 121.457s-123.101-45.818-123.101-121.457 55.114-203.237 123.101-203.237 123.101 127.599 123.101 203.237z" fill="#faf7f5"/><g><g><path d="m141.714 209.299 5.32-39.308 35.544-17.738 5.321-39.309 35.544-17.738 5.321-39.309 3.933-1.963c-7.285-7.191-14.854-13.638-22.541-19.125-62.038-44.275-131.898-26.032-171.717 29.554s-34.518 127.467 27.521 171.742c10.643 7.595 22.957 14.379 36.257 20.126l3.951-29.192z" fill="#ffc8b8"/></g><g><path d="m485.319 51.941c-34.932-48.669-130.459-41.796-195.285-9.54l.593 4.349 35.562 17.709 5.358 39.303 35.563 17.71 5.358 39.303 35.562 17.708 5.359 39.305 26.41 13.151c47.036-51.724 78.553-132.975 45.52-178.998z" fill="#ffc8b8"/></g></g><g><ellipse cx="264.922" cy="375.287" fill="#fff2a0" rx="73.847" ry="73.761"/></g></g><g><path d="m388.017 391.415c-4.173 0-7.986-2.69-9.403-6.61-1.377-3.81-.249-8.238 2.811-10.905 3.283-2.863 8.165-3.263 11.868-.97 3.529 2.185 5.359 6.458 4.512 10.519-.956 4.582-5.102 7.966-9.788 7.966z"/><path d="m264.923 512.035c-36.449 0-69.794-12.456-93.89-35.073-25.652-24.078-39.212-57.407-39.212-96.384 0-39.833 14.622-92.716 37.252-134.725 27.272-50.629 61.313-78.512 95.85-78.512 29.079 0 57.638 19.537 82.59 56.498 20.543 30.43 37.036 70.576 45.251 110.145 1.123 5.408-2.351 10.701-7.758 11.824-5.412 1.125-10.701-2.352-11.824-7.758-15.047-72.479-60.716-150.708-108.259-150.708-26.446 0-54.964 24.784-78.242 67.997-21.176 39.311-34.859 88.471-34.859 125.24 0 65.624 46.509 111.457 113.102 111.457 49.631 0 90.171-26.245 105.801-68.494 1.917-5.18 7.669-7.826 12.849-5.909s7.825 7.669 5.909 12.849c-18.612 50.303-66.341 81.553-124.56 81.553z"/><path d="m264.923 459.048c-46.233 0-83.848-37.575-83.848-83.761s37.614-83.761 83.848-83.761 83.848 37.575 83.848 83.761-37.615 83.761-83.848 83.761zm0-147.523c-35.206 0-63.848 28.603-63.848 63.761s28.642 63.761 63.848 63.761 63.848-28.603 63.848-63.761-28.642-63.761-63.848-63.761z"/><path d="m439.795 240.941c-1.511 0-3.034-.342-4.454-1.049l-26.409-13.151c-2.962-1.476-5.003-4.321-5.45-7.601l-4.645-34.063-30.826-15.35c-2.962-1.476-5.003-4.321-5.45-7.601l-4.644-34.061-30.827-15.351c-2.963-1.476-5.003-4.321-5.45-7.601l-4.644-34.062-30.827-15.351c-2.963-1.476-5.004-4.322-5.45-7.602l-.593-4.349c-.579-4.249 1.614-8.394 5.453-10.304 70.439-35.046 169.94-40.173 207.864 12.665 36.658 51.075 3.533 136.815-46.246 191.558-1.943 2.137-4.65 3.273-7.402 3.273zm-17.212-29.745 14.79 7.365c20.852-24.492 37.317-54.039 45.623-82.097 6.751-22.806 11.225-54.971-5.801-78.691-14.084-19.623-41.927-30.614-78.4-30.948-28.751-.253-61.266 6.33-89.714 17.945l21.566 10.739c2.962 1.476 5.003 4.321 5.45 7.601l4.644 34.061 30.827 15.351c2.963 1.476 5.003 4.321 5.45 7.601l4.644 34.061 30.826 15.35c2.962 1.476 5.003 4.321 5.45 7.601z"/><path d="m102.216 266.231c-1.348 0-2.697-.272-3.967-.82-14.196-6.135-27.015-13.256-38.099-21.167-30.743-21.94-49.938-51.253-55.508-84.771-5.662-34.077 3.453-69.923 25.667-100.933 21.34-29.79 51.071-49.752 83.716-56.211 34.743-6.875 69.994 1.542 101.94 24.34 8.016 5.72 16.008 12.499 23.757 20.147 2.297 2.267 3.358 5.503 2.851 8.69-.459 2.88-2.148 5.401-4.602 6.923l-4.618 34.117c-.443 3.28-2.482 6.128-5.443 7.606l-30.811 15.376-4.612 34.065c-.443 3.28-2.482 6.128-5.443 7.606l-30.81 15.375-4.611 34.064c-.443 3.28-2.481 6.128-5.443 7.606l-30.812 15.377-3.242 23.948c-.419 3.101-2.267 5.827-4.991 7.366-1.521.862-3.217 1.296-4.919 1.296zm35.02-245.995c-34.235 0-67.145 17.113-90.668 49.95-19.099 26.662-26.981 57.207-22.195 86.008 4.681 28.165 21.07 52.983 47.396 71.771 6.733 4.805 14.222 9.303 22.364 13.438l2.126-15.706c.443-3.28 2.482-6.128 5.443-7.606l30.812-15.377 4.611-34.064c.443-3.28 2.482-6.128 5.443-7.606l30.81-15.375 4.612-34.065c.443-3.28 2.482-6.128 5.443-7.606l30.811-15.376 4.602-34c-4.801-4.307-9.654-8.215-14.497-11.672-21.402-15.275-44.548-22.714-67.113-22.714zm4.478 189.063h.01z"/></g></g></svg>