<?xml version="1.0" encoding="iso-8859-1"?>
<!-- Generator: Adobe Illustrator 19.0.0, SVG Export Plug-In . SVG Version: 6.00 Build 0)  -->
<svg version="1.1" id="Capa_1" xmlns="http://www.w3.org/2000/svg" xmlns:xlink="http://www.w3.org/1999/xlink" x="0px" y="0px"
	 viewBox="0 0 512.001 512.001" style="enable-background:new 0 0 512.001 512.001;" xml:space="preserve">
<path style="fill:#FEA832;" d="M355.854,15.571C314.329-9.92,261.234-3.623,226.741,30.869L30.87,226.74
	c-34.492,34.492-40.79,87.587-15.299,129.113c0.632,1.025,1.367,1.947,2.186,2.766c4.796,4.796,12.409,5.863,18.448,2.165
	L336.619,60.369C340.949,53.305,362.908,20.014,355.854,15.571z"/>
<path style="fill:#FC4629;" d="M498.271,168.755L168.758,498.269c-44.124,16.546-93.976,5.728-127.281-27.577
	c-46.882-46.882-46.88-122.825,0-169.706l259.511-259.51c46.882-46.882,122.824-46.882,169.706,0
	C503.998,74.781,514.817,124.631,498.271,168.755z"/>
<path style="fill:#FF2615;" d="M498.271,168.755L168.758,498.269c-44.124,16.546-93.976,5.728-127.281-27.577L470.693,41.476
	C503.998,74.781,514.817,124.631,498.271,168.755z"/>
<path style="fill:#FEDB41;" d="M90.279,399.981c-18.013-19.235-22.083-43.98-10.617-64.582
	c10.855-19.514,32.835-29.686,54.69-25.315c7.023,1.409,13.952-0.694,19.017-5.759s7.168-11.995,5.759-19.017
	c-3.356-16.78,1.864-34.016,13.963-46.114c12.098-12.098,29.334-17.319,46.114-13.963c7.023,1.409,13.952-0.694,19.017-5.759
	s7.168-11.995,5.759-19.017c-3.356-16.78,1.864-34.016,13.963-46.114c12.098-12.098,29.334-17.319,46.114-13.963
	c10.741,2.144,19.235-3.988,22.891-11.021c5.034-9.674,1.958-20.726-8.597-30.97c-0.093-0.093-0.176-0.176-0.259-0.259
	l20.954-21.472c24.901,23.575,23.368,49.491,14.512,66.53c-10.607,20.426-32.866,31.105-55.384,26.61
	c-7.023-1.409-13.952,0.694-19.017,5.759s-7.168,11.995-5.759,19.017c3.356,16.78-1.864,34.016-13.963,46.114
	c-12.098,12.098-29.334,17.319-46.114,13.963c-7.023-1.409-13.952,0.694-19.017,5.759s-7.168,11.995-5.759,19.017
	c3.356,16.78-1.864,34.016-13.963,46.114c-12.098,12.098-29.334,17.319-46.114,13.963c-10.41-2.082-18.852,3.77-22.591,10.493
	c-5.055,9.074-2.755,19.825,6.298,29.5l-21.203,21.203"/>
<path style="fill:#FCBF29;" d="M136.936,481.299c-17.546-17.546-17.546-46.093,0-63.64L417.66,136.935
	c17.546-17.546,46.093-17.546,63.64,0c40.935,40.935,40.935,107.558,0,148.492L285.429,481.299
	C244.494,522.234,177.871,522.234,136.936,481.299z"/>
<g>
</g>
<g>
</g>
<g>
</g>
<g>
</g>
<g>
</g>
<g>
</g>
<g>
</g>
<g>
</g>
<g>
</g>
<g>
</g>
<g>
</g>
<g>
</g>
<g>
</g>
<g>
</g>
<g>
</g>
</svg>
