<?xml version="1.0" encoding="iso-8859-1"?>
<!-- Generator: Adobe Illustrator 19.0.0, SVG Export Plug-In . SVG Version: 6.00 Build 0)  -->
<svg version="1.1" id="Capa_1" xmlns="http://www.w3.org/2000/svg" xmlns:xlink="http://www.w3.org/1999/xlink" x="0px" y="0px"
	 viewBox="0 0 511.996 511.996" style="enable-background:new 0 0 511.996 511.996;" xml:space="preserve">
<path style="fill:#C0785F;" d="M367.569,186.097l-94.712,313.388c-2.819,9.31-12.657,14.568-21.967,11.75
	c-5.637-1.709-10.041-6.113-11.75-11.75l-93.973-308.984L367.569,186.097z"/>
<path style="fill:#FBD836;" d="M361.694,158.572L361.694,158.572c24.319-58.371-3.285-125.417-61.656-149.736
	s-125.417,3.285-149.736,61.656c-11.741,28.186-11.741,59.894,0,88.08v3.655c-19.457,0-35.232,15.775-35.232,35.232
	s15.775,35.232,35.232,35.232s35.232-15.775,35.232-35.232h0.37c1.947,19.263,19.149,33.303,38.42,31.356
	c17.255-1.744,30.643-15.846,31.489-33.171h0.37c0.969,19.395,17.484,34.334,36.879,33.356c18.743-0.934,33.453-16.436,33.4-35.197
	c0,19.457,15.775,35.232,35.232,35.232c19.457,0,35.232-15.775,35.232-35.232S381.159,158.572,361.694,158.572z"/>
<g>
	
		<rect x="265.648" y="208.631" transform="matrix(-0.7071 0.7071 -0.7071 -0.7071 657.8089 284.1641)" style="fill:#A86953;" width="8.808" height="139.376"/>
	
		<rect x="238.422" y="247.824" transform="matrix(-0.7071 0.7071 -0.7071 -0.7071 629.4032 347.0477)" style="fill:#A86953;" width="8.808" height="112.107"/>
	
		<rect x="248.731" y="242.242" transform="matrix(-0.7071 0.7071 -0.7071 -0.7071 641.5452 227.5558)" style="fill:#A86953;" width="49.826" height="8.808"/>
</g>
<g>
</g>
<g>
</g>
<g>
</g>
<g>
</g>
<g>
</g>
<g>
</g>
<g>
</g>
<g>
</g>
<g>
</g>
<g>
</g>
<g>
</g>
<g>
</g>
<g>
</g>
<g>
</g>
<g>
</g>
</svg>
