<svg id="Capa_1" enable-background="new 0 0 511.972 511.972" height="512" viewBox="0 0 511.972 511.972" width="512" xmlns="http://www.w3.org/2000/svg"><g><g><path d="m386.626 451.599c2.954 13.046-12.511 22.475-22.518 13.581-4.452-3.949-9.643-7.192-18.13-7.192-21.822 0-21.822 21.405-43.655 21.405-21.822 0-21.822-21.405-43.655-21.405-21.822 0-21.822 21.405-43.655 21.405s-21.833-21.405-43.655-21.405c-21.833 0-21.833 21.405-43.666 21.405s-21.833-21.405-43.666-21.405c-8.487 0-13.678 3.243-18.13 7.192-10.007 8.894-25.472-.535-22.518-13.592 4.559-20.195 12.714-30.941 12.714-30.941v-361.901s-8.155-10.735-12.714-30.941c-2.953-13.057 12.512-22.475 22.519-13.592 4.452 3.96 9.643 7.192 18.13 7.192 8.819 0 14.074-3.5 18.644-7.652 6.742-6.154 11.996-13.753 25-13.753 21.833 0 21.833 21.405 43.666 21.405 21.822 0 21.822-21.405 43.655-21.405s21.833 21.405 43.655 21.405c21.833 0 21.833-21.405 43.666-21.405s21.833 21.405 43.655 21.405c8.498 0 13.688-3.232 18.141-7.192 10.007-8.883 25.472.535 22.518 13.592-4.559 20.206-12.715 30.941-12.715 30.941v361.902c0-.001 8.155 10.745 12.714 30.951z" fill="#ededed"/><path d="m56.093 85.009v-26.263s-8.155-10.735-12.714-30.941c-2.954-13.057 12.511-22.475 22.518-13.592 4.452 3.96 9.643 7.192 18.13 7.192 8.819 0 14.074-3.5 18.644-7.652 3.917 21.865 10.627 39.107 10.627 39.107z" fill="#dbdbdb"/><path d="m56.094 394.386v26.264s-8.155 10.735-12.714 30.941c-2.954 13.057 12.511 22.475 22.518 13.592 4.452-3.96 9.643-7.192 18.13-7.192 8.819 0 14.074 3.5 18.644 7.652 3.917-21.865 10.627-39.107 10.627-39.107z" fill="#dbdbdb"/><path d="m373.915 57.711c-86.874-10.912-173.748-12.877-260.622-5.892-19.068 1.533-32.218 7.279-51.286 9.674-11.653 120.98-17.572 238.177-5.918 359.156 105.942 13.308 211.884 13.308 317.826 0 11.654-120.979 11.654-241.958 0-362.938z" fill="#e49542"/><path d="m113.293 426.542c-19.072-1.53-38.133-3.5-57.204-5.897-11.655-120.98-11.655-241.96 0-362.94 19.072-2.397 38.133-4.356 57.204-5.886-11.901 124.897-11.901 249.815 0 374.723z" fill="#e28424"/><path d="m344.523 239.177c0 65.846-57.986 119.223-129.521 119.223-46.416 0-87.128-22.482-109.989-56.257-12.382-18.268-19.532-39.851-19.532-62.967 0-23.155 7.171-44.765 19.585-63.059 22.871-33.735 63.562-56.164 109.935-56.164 71.536.001 129.522 53.378 129.522 119.224z" fill="#ededed"/></g><g><path d="m198.508 277.67c-31.211 9.705-81.62-.213-82.068-43.434s53.352-17.475 53.352-17.475z" fill="#ffc250"/><path d="m131.614 209.988c21.782-3.733 38.326 25.132 56.629 55.242s65.965 42.044 96.419 16.724c30.453-25.321 43.343-69.667 5.951-96.119s-60.734 33.603-92.924 35.253c-32.19 1.649-32.425-22.279-66.075-11.1z" fill="#ffd064"/></g><g><path d="m320.2 488.623c-40.355 12.548-105.534-.276-106.113-56.159-.579-55.884 68.984-22.594 68.984-22.594z" fill="#ffc250"/><path d="m233.707 401.11c28.164-4.826 49.555 32.496 73.221 71.427s85.293 54.363 124.669 21.623 56.042-90.079 7.694-124.281-78.529 43.448-120.15 45.582-41.925-28.805-85.434-14.351z" fill="#ffd064"/></g><g fill="#ffc250"><path d="m433.933 466.289c-2.652 0-5.233-1.366-6.672-3.819-2.159-3.681-.924-8.414 2.756-10.573l.384-.225c3.682-2.158 8.413-.924 10.573 2.757 2.159 3.681.924 8.414-2.756 10.573l-.384.225c-1.228.72-2.573 1.062-3.901 1.062z"/><path d="m444.917 448.394c-2.652 0-5.233-1.366-6.672-3.819-2.159-3.681-.924-8.414 2.756-10.573l.384-.225c3.681-2.158 8.414-.924 10.573 2.757s.924 8.414-2.756 10.573l-.384.225c-1.228.72-2.573 1.062-3.901 1.062z"/><path d="m423.288 448.122c-2.652 0-5.233-1.366-6.672-3.819-2.159-3.681-.924-8.414 2.756-10.573l.384-.225c3.682-2.158 8.414-.924 10.573 2.757s.924 8.414-2.756 10.573l-.384.225c-1.228.72-2.573 1.062-3.901 1.062z"/></g></g></svg>