<svg id="Layer_3" enable-background="new 0 0 64 64" height="512" viewBox="0 0 64 64" width="512" xmlns="http://www.w3.org/2000/svg"><path d="m18 4h8c2.209 0 4 1.791 4 4v4h-4v-4h-8" fill="#8f6e6e"/><path d="m10 12v-10h8v10" fill="#bf9292"/><path d="m10 2h5v10h-5z" fill="#ffc2c2"/><path d="m8 18v-6h12v6" fill="#8f6e6e"/><path d="m8 12h9v6h-9z" fill="#bf9292"/><path d="m26 62h-24v-42c0-1.105.895-2 2-2h20c1.105 0 2 .895 2 2z" fill="#bf9292"/><path d="m21 18h-17c-1.105 0-2 .895-2 2v42h21v-42c0-1.105-.895-2-2-2z" fill="#ffc2c2"/><path d="m2 26h24v28h-24z" fill="#8a847e"/><path d="m2 26h21v28h-21z" fill="#b8b0a8"/><path d="m36 60h19c1.105 0 2-.895 2-2 0-1.105-.895-2-2-2h-5c-1.105 0-2-.895-2-2 0-1.105.895-2 2-2h10c1.105 0 2-.895 2-2 0-1.105-.895-2-2-2h-24" fill="#c5dfff"/><path d="m26 30v2h6v6h2c1.105 0 2 .895 2 2v3.196c.882.511 1.907.804 3 .804 2.323 0 4.334-1.323 5.331-3.254.71 1.897 2.524 3.254 4.669 3.254 1.404 0 2.668-.582 3.576-1.514.742.328 1.561.514 2.424.514 3.314 0 6-2.686 6-6 0-1.929-.914-3.641-2.329-4.739.211-.718.329-1.475.329-2.261 0-4.418-3.582-8-8-8-2.165 0-4.125.863-5.566 2.26-1.457-1.974-3.792-3.26-6.434-3.26-4.08 0-7.44 3.057-7.931 7.003-.023 0-.046-.003-.069-.003-1.907 0-3.636.763-4.899 2z" fill="#c5dfff"/><path d="m24 38v-6h8v6" fill="#896047"/><path d="m24 32h5v6h-5z" fill="#b7805f"/><path d="m36 62h-16v-22c0-1.105.895-2 2-2h12c1.105 0 2 .895 2 2z" fill="#bfaa5f"/><path d="m31 38h-9c-1.105 0-2 .895-2 2v22h13v-22c0-1.105-.895-2-2-2z" fill="#ffe27e"/><path d="m20 44h16v12h-16z" fill="#b8b0a8"/><path d="m20 44h13v12h-13z" fill="#f5ebe0"/><path d="m5 29h2v18h-2z" fill="#8a847e"/><path d="m5 49h2v2h-2z" fill="#8a847e"/><path d="m56 30h-2c0-1.654-1.346-3-3-3v-2c2.757 0 5 2.243 5 5z" fill="#94a7bf"/></svg>